<?xml version="1.0" encoding="UTF-8"?>
<svg version="1.1" xmlns="http://www.w3.org/2000/svg" width="1920" height="1080">
<path d="M0 0 C633.6 0 1267.2 0 1920 0 C1920 356.4 1920 712.8 1920 1080 C1286.4 1080 652.8 1080 0 1080 C0 723.6 0 367.2 0 0 Z " fill="#FEFEFE" transform="translate(0,0)"/>
<path d="M0 0 C39.6 0 79.2 0 120 0 C119.35333016 5.8200286 118.66565119 11.08888321 117.43359375 16.7421875 C117.27935944 17.45473694 117.12512512 18.16728638 116.96621704 18.90142822 C116.46129607 21.22699366 115.94955511 23.55099591 115.4375 25.875 C115.07652347 27.5297376 114.71576904 29.18452367 114.35522461 30.83935547 C111.84480299 42.32452919 109.2266891 53.78357186 106.57333374 65.23641968 C103.20383856 79.80527421 100.14278964 94.43508105 97.14477539 109.08447266 C95.49028989 117.14373811 93.80118186 125.19683461 91.921875 133.20703125 C91.77260559 133.88376389 91.62333618 134.56049652 91.46954346 135.25773621 C91.01855469 137.11645508 91.01855469 137.11645508 90 140 C89.01 140.33 88.02 140.66 87 141 C87.01160156 141.88042969 87.02320313 142.76085937 87.03515625 143.66796875 C87.04417969 144.82941406 87.05320312 145.99085938 87.0625 147.1875 C87.07410156 148.33605469 87.08570313 149.48460937 87.09765625 150.66796875 C87.01192832 153.59300586 86.67849023 156.16316291 86 159 C83.27573689 156.64722731 82.1858237 154.37503669 81 151 C78.56493148 155.87013704 79.50138685 162.67438717 80 168 C81.05508277 170.93652408 82.28099487 173.39229163 83.90625 176.046875 C85 178 85 178 85 181 C84.01 180.34 83.02 179.68 82 179 C83.19899698 182.0831351 84.47700477 185.06279492 86 188 C80.35677518 184.51447879 77.62412084 178.90652629 75 173 C75 172.01 75 171.02 75 170 C72.05167671 172.43557141 71.4191506 174.22764462 71 178 C70.31628076 186.06788709 72.51600873 192.55001213 77.25 199.125 C77.8275 199.74375 78.405 200.3625 79 201 C78.67 201.66 78.34 202.32 78 203 C77.67 202.67 77.34 202.34 77 202 C73.62754358 217.04978104 70.31501729 232.11141207 67.0625 247.1875 C61.78760476 271.62509318 61.78760476 271.62509318 59.63400269 281.51089478 C59.20335527 283.48964767 58.77461475 285.46881528 58.34594727 287.44799805 C58.08096436 288.66269775 57.81598145 289.87739746 57.54296875 291.12890625 C57.31633545 292.17119385 57.08970215 293.21348145 56.85620117 294.28735352 C56.08926146 297.61294582 55.27663007 300.9217944 54.44648743 304.23204041 C54.1757758 305.31228957 53.90506418 306.39253874 53.62614918 307.50552273 C53.41951995 308.32870023 53.21289072 309.15187773 53 310 C28.12186145 310.16359978 3.24380366 310.28699961 -21.63476467 310.3626852 C-33.18662446 310.39876317 -44.73814981 310.44794122 -56.28979492 310.52807617 C-66.35949096 310.59789733 -76.42894477 310.64301972 -86.49887615 310.65861946 C-91.82982662 310.66773683 -97.16008416 310.68912874 -102.4908123 310.7401104 C-107.51178335 310.78773909 -112.53177822 310.80225762 -117.55295372 310.79175377 C-119.39238038 310.79367442 -121.23184077 310.80753094 -123.07107162 310.83443832 C-139.85004856 311.06780179 -139.85004856 311.06780179 -146.38772678 304.88173008 C-150.91329829 299.59980643 -153.4613404 296.15805469 -153.29174805 288.90039062 C-152.62067059 282.22892603 -150.89845737 275.70603812 -149.375 269.1875 C-149.00333302 267.56365635 -148.63282406 265.93954724 -148.26342773 264.31518555 C-147.7043861 261.85722359 -147.14475607 259.39941837 -146.58158875 256.94239807 C-145.00907397 250.0795232 -143.51960037 243.2007994 -142.0625 236.3125 C-136.21684707 208.83752444 -130.11872959 181.41527735 -124 154 C-120.29313302 154.66644619 -117.5916174 156.29539129 -114.3984375 158.25390625 C-112.72189087 159.27701904 -112.72189087 159.27701904 -111.01147461 160.32080078 C-109.79922886 161.06789181 -108.58707282 161.81512843 -107.375 162.5625 C-106.12469115 163.32838817 -104.87411783 164.09384477 -103.62329102 164.85888672 C-100.38560515 166.84096313 -97.15190125 168.82944236 -93.91912842 170.81951904 C-91.45529038 172.335058 -88.98897421 173.84653197 -86.52246094 175.35771179 C-75.96448847 181.82718448 -65.42835958 188.32287656 -55 195 C-57.54714692 208.711856 -60.2298775 222.38368291 -63.25 236 C-63.50797363 237.16829346 -63.76594727 238.33658691 -64.03173828 239.5402832 C-65.87137016 247.74274033 -65.87137016 247.74274033 -67 250 C-48.85 250 -30.7 250 -12 250 C-10.68 243.73 -9.36 237.46 -8 231 C-5.70854045 220.47593528 -5.70854045 220.47593528 -4.90625 216.83789062 C-4.63941406 215.62709839 -4.63941406 215.62709839 -4.3671875 214.3918457 C-4.09261719 213.14600708 -4.09261719 213.14600708 -3.8125 211.875 C-3.42048283 210.09311877 -3.02855801 208.31121723 -2.63671875 206.52929688 C-1.82668778 202.84595084 -1.01626926 199.1626904 -0.20556641 195.47949219 C1.51367476 187.66714697 3.22802805 179.85372943 4.9425354 172.04034424 C5.87813631 167.77684773 6.81408661 163.51342792 7.75 159.25 C8.12500166 157.54166703 8.50000166 155.8333337 8.875 154.125 C11.12499998 143.87500008 11.12499998 143.87500008 11.68742371 141.31285095 C12.06267991 139.60334819 12.43793422 137.89384502 12.81318665 136.18434143 C13.7467512 131.9313969 14.68034796 127.67845944 15.61401367 123.42553711 C17.34836177 115.52528234 19.08240865 107.62496184 20.81533813 99.72439575 C21.62074679 96.05256494 22.42633411 92.38077333 23.23193359 88.70898438 C23.61044007 86.98358061 23.98886212 85.25815832 24.3671875 83.53271484 C24.72346924 81.90782486 25.07994167 80.28297668 25.43661499 78.65817261 C25.78046442 77.09027327 26.12343729 75.52218141 26.46548462 73.95388794 C27.33394713 69.98210401 28.22441291 66.0170192 29.14990234 62.05810547 C29.33622726 61.25078476 29.52255219 60.44346405 29.71452332 59.61167908 C30.06700304 58.08787093 30.42536674 56.56540585 30.79096985 55.04469299 C32.70641823 47.04239674 32.70641823 47.04239674 30.453125 39.47265625 C29.72609375 38.67730469 28.9990625 37.88195312 28.25 37.0625 C27.42757812 36.12148438 26.60515625 35.18046875 25.7578125 34.2109375 C25.31083008 33.70014648 24.86384766 33.18935547 24.40332031 32.66308594 C21.83196 29.61574661 19.49283228 26.3937476 17.125 23.1875 C12.62275619 17.12254189 8.02167056 11.14960716 3.30126953 5.25268555 C0 1.10375968 0 1.10375968 0 0 Z " fill="#1791C8" transform="translate(924,419)"/>
<path d="M0 0 C0.66 0 1.32 0 2 0 C2 2.64 2 5.28 2 8 C1.34 7.34 0.68 6.68 0 6 C-2.43506852 10.87013704 -1.49861315 17.67438717 -1 23 C0.05508277 25.93652408 1.28099487 28.39229163 2.90625 31.046875 C4 33 4 33 4 36 C3.01 35.34 2.02 34.68 1 34 C2.19899698 37.0831351 3.47700477 40.06279492 5 43 C-0.64322482 39.51447879 -3.37587916 33.90652629 -6 28 C-6 27.01 -6 26.02 -6 25 C-8.96144753 27.44641317 -9.45233676 29.25061323 -10 33 C-10.0659735 35.10323534 -10.08562245 37.20835724 -10.0625 39.3125 C-10.05347656 40.38113281 -10.04445313 41.44976563 -10.03515625 42.55078125 C-10.02355469 43.35902344 -10.01195312 44.16726563 -10 45 C-12.80130247 42.19869753 -12.33279963 40.34947421 -12.375 36.4375 C-12.30969146 30.09604092 -11.22416878 25.44078482 -8 20 C-7.34 20 -6.68 20 -6 20 C-6 20.66 -6 21.32 -6 22 C-5.34 22 -4.68 22 -4 22 C-4.04640625 21.16597656 -4.0928125 20.33195313 -4.140625 19.47265625 C-4.38117506 11.97264893 -3.78183434 6.53379414 0 0 Z " fill="#447C95" transform="translate(1005,564)"/>
<path d="M0 0 C0.66 0 1.32 0 2 0 C6.05857126 9.13178533 4.36239463 18.95355732 1 28 C0.34 28 -0.32 28 -1 28 C-0.67515625 26.80503906 -0.67515625 26.80503906 -0.34375 25.5859375 C-0.0653125 24.52632812 0.213125 23.46671875 0.5 22.375 C0.7784375 21.33085938 1.056875 20.28671875 1.34375 19.2109375 C2.13903737 15.31971002 2.82186975 11.64373949 1 8 C0.01 8.99 -0.98 9.98 -2 11 C-1.34 7.37 -0.68 3.74 0 0 Z " fill="#717171" transform="translate(1109,491)"/>
<path d="M0 0 C0.66 0 1.32 0 2 0 C2 2.64 2 5.28 2 8 C1.34 7.34 0.68 6.68 0 6 C-1.50941005 9.0188201 -1.17093272 11.8309686 -1.1875 15.1875 C-1.20167969 16.48042969 -1.21585938 17.77335938 -1.23046875 19.10546875 C-0.99225711 23.1308417 -0.24841553 26.19554003 1 30 C-2.89014376 26.27899292 -2.89014376 26.27899292 -3.16113281 23.12402344 C-3.20671309 20.66586846 -3.23530019 18.20854287 -3.25 15.75 C-3.270625 14.90308594 -3.29125 14.05617188 -3.3125 13.18359375 C-3.34473553 8.0017324 -2.81174714 4.52839277 0 0 Z " fill="#0A3A50" transform="translate(1005,564)"/>
<path d="M0 0 C0.66 0 1.32 0 2 0 C2.33 2.64 2.66 5.28 3 8 C2.67 7.01 2.34 6.02 2 5 C-0.96144753 7.44641317 -1.45233676 9.25061323 -2 13 C-2.0659735 15.10323534 -2.08562245 17.20835724 -2.0625 19.3125 C-2.05347656 20.38113281 -2.04445313 21.44976563 -2.03515625 22.55078125 C-2.02355469 23.35902344 -2.01195312 24.16726563 -2 25 C-4.80130247 22.19869753 -4.33279963 20.34947421 -4.375 16.4375 C-4.30969146 10.09604092 -3.22416878 5.44078482 0 0 Z " fill="#0B3B51" transform="translate(997,584)"/>
<path d="M0 0 C0.66 0 1.32 0 2 0 C4.14802531 4.34719408 4.30196265 8.37041791 4.25 13.125 C4.25773437 13.84042969 4.26546875 14.55585937 4.2734375 15.29296875 C4.25933736 19.06475618 4.14079147 20.78881279 2 24 C2.01160156 22.79601562 2.02320313 21.59203125 2.03515625 20.3515625 C2.04453434 18.77604321 2.05363452 17.20052225 2.0625 15.625 C2.07087891 14.8309375 2.07925781 14.036875 2.08789062 13.21875 C2.23040151 8.97607778 2.23040151 8.97607778 1 5 C0.34 5.66 -0.32 6.32 -1 7 C-0.67 4.69 -0.34 2.38 0 0 Z " fill="#505050" transform="translate(1116,509)"/>
<path d="M0 0 C0.33 0 0.66 0 1 0 C1.33 5.61 1.66 11.22 2 17 C1.34 17 0.68 17 0 17 C0.33 18.98 0.66 20.96 1 23 C-2.00617269 19.99382731 -1.59585316 17.17618402 -2 13 C-1.34 13 -0.68 13 0 13 C0 8.71 0 4.42 0 0 Z " fill="#126D96" transform="translate(1001,573)"/>
<path d="M0 0 C0.66 0 1.32 0 2 0 C3.1577506 3.47325181 3.06866652 6.36067448 3 10 C2.34 9.34 1.68 8.68 1 8 C0.01 8.99 -0.98 9.98 -2 11 C-1.34 7.37 -0.68 3.74 0 0 Z " fill="#5F5F5F" transform="translate(1109,491)"/>
</svg>
